# xmcd
#
# Track frame offsets:
#	150
#	15660
#	35205
#	52220
#	69912
#	97062
#	114370
#
# Disc length: 1748 seconds
#
# Revision: 1
# Processed by: cddbd v1.5.2PL0 Copyright (c) Steve Scherf et al.
# Submitted via: audiograbber 1.83.01
#
DISCID=5e06d207
DTITLE=NonStop - Enkeli Ei [CDM)
DYEAR=2000
DGENRE=Dance
TTITLE0=Enkeli Ei (Twister Radio Edit)
TTITLE1=Enkeli Ei (Twister Extended Remix)
TTITLE2=Enkeli Ei (VT Mix)
TTITLE3=Enkeli Ei (Profect Radio Mix)
TTITLE4=Enkeli Ei (Profect Extended Mix)
TTITLE5=Enkeli Ei (Albumi Versio)
TTITLE6=Haluun Saalistaa (Illusion Rake Remix)
EXTD=TR.
EXTT0=
EXTT1=
EXTT2=
EXTT3=
EXTT4=
EXTT5=
EXTT6=
PLAYORDER=
